<svg width="33" height="33" viewBox="0 0 33 33" fill="none" xmlns="http://www.w3.org/2000/svg">
<path d="M25.65 4.05002H20.007C19.44 2.48402 17.955 1.35002 16.2 1.35002C14.445 1.35002 12.96 2.48402 12.393 4.05002H6.75002C5.26502 4.05002 4.05002 5.26502 4.05002 6.75002V25.65C4.05002 27.135 5.26502 28.35 6.75002 28.35H25.65C27.135 28.35 28.35 27.135 28.35 25.65V6.75002C28.35 5.26502 27.135 4.05002 25.65 4.05002ZM16.2 4.05002C16.9425 4.05002 17.55 4.65752 17.55 5.40002C17.55 6.14252 16.9425 6.75002 16.2 6.75002C15.4575 6.75002 14.85 6.14252 14.85 5.40002C14.85 4.65752 15.4575 4.05002 16.2 4.05002ZM18.9 22.95H9.45002V20.25H18.9V22.95ZM22.95 17.55H9.45002V14.85H22.95V17.55ZM22.95 12.15H9.45002V9.45002H22.95V12.15Z" fill="#8E8E93"/>
</svg>
