<svg width="33" height="33" viewBox="0 0 33 33" fill="none" xmlns="http://www.w3.org/2000/svg">
<path d="M21.6 14.85C23.841 14.85 25.6365 13.041 25.6365 10.8C25.6365 8.55903 23.841 6.75003 21.6 6.75003C19.359 6.75003 17.55 8.55903 17.55 10.8C17.55 13.041 19.359 14.85 21.6 14.85ZM10.8 14.85C13.041 14.85 14.8365 13.041 14.8365 10.8C14.8365 8.55903 13.041 6.75003 10.8 6.75003C8.55899 6.75003 6.74999 8.55903 6.74999 10.8C6.74999 13.041 8.55899 14.85 10.8 14.85ZM10.8 17.55C7.65449 17.55 1.34999 19.1295 1.34999 22.275V25.65H20.25V22.275C20.25 19.1295 13.9455 17.55 10.8 17.55ZM21.6 17.55C21.2085 17.55 20.763 17.577 20.2905 17.6175C21.8565 18.7515 22.95 20.277 22.95 22.275V25.65H31.05V22.275C31.05 19.1295 24.7455 17.55 21.6 17.55Z" fill="#8E8E93"/>
</svg>
